<svg viewBox="0 0 800 200" xmlns="http://www.w3.org/2000/svg" width="800" height="200">
  <rect width="800" height="200" rx="16" fill="#ffffff" stroke="#e5e7eb" stroke-width="1"/>
  <rect x="540" y="24" width="220" height="26" rx="6" fill="#f1f5f9"/>
  <text x="552" y="41" font-size="12" fill="#475569" font-family="monospace">&#x1F916; S:48%  W:12%</text>
  <circle cx="738" cy="37" r="4" fill="#cbd5e1"/>
  <circle cx="726" cy="37" r="4" fill="#cbd5e1"/>
  <rect x="540" y="56" width="220" height="120" rx="8" fill="#ffffff" stroke="#e5e7eb" stroke-width="1"/>
  <text x="554" y="76" font-size="10" fill="#374151" font-family="monospace">Session (5hr)</text>
  <rect x="554" y="82" width="90" height="6" rx="3" fill="#3b82f6"/>
  <rect x="646" y="82" width="44" height="6" rx="3" fill="#e5e7eb"/>
  <text x="698" y="90" font-size="9" fill="#6b7280" font-family="monospace">48%</text>
  <text x="554" y="104" font-size="9" fill="#22c55e" font-family="monospace">Resets in 1h 56m</text>
  <line x1="554" y1="112" x2="748" y2="112" stroke="#f1f5f9" stroke-width="1"/>
  <text x="554" y="126" font-size="10" fill="#374151" font-family="monospace">Weekly (all)</text>
  <rect x="554" y="132" width="14" height="6" rx="3" fill="#3b82f6"/>
  <rect x="570" y="132" width="120" height="6" rx="3" fill="#e5e7eb"/>
  <text x="698" y="140" font-size="9" fill="#6b7280" font-family="monospace">12%</text>
  <text x="554" y="154" font-size="9" fill="#22c55e" font-family="monospace">Resets in 6d 21h</text>
  <text x="48" y="86" font-size="38" font-weight="700" fill="#0f172a" font-family="monospace">Claude Monitor</text>
  <text x="48" y="112" font-size="13" fill="#64748b" font-family="monospace">Real-time usage stats in your macOS menu bar</text>
  <rect x="48" y="132" width="72" height="22" rx="11" fill="#f5f3ff" stroke="#c4b5fd" stroke-width="1"/>
  <text x="84" y="147" font-size="10" font-weight="500" text-anchor="middle" fill="#7c3aed" font-family="monospace">SwiftBar</text>
  <rect x="128" y="132" width="78" height="22" rx="11" fill="#eff6ff" stroke="#93c5fd" stroke-width="1"/>
  <text x="167" y="147" font-size="10" font-weight="500" text-anchor="middle" fill="#1d4ed8" font-family="monospace">Live Usage</text>
  <rect x="214" y="132" width="84" height="22" rx="11" fill="#f0fdf4" stroke="#86efac" stroke-width="1"/>
  <text x="256" y="147" font-size="10" font-weight="500" text-anchor="middle" fill="#166534" font-family="monospace">Auto Refresh</text>
  <rect x="306" y="132" width="88" height="22" rx="11" fill="#fffbeb" stroke="#fcd34d" stroke-width="1"/>
  <text x="350" y="147" font-size="10" font-weight="500" text-anchor="middle" fill="#92400e" font-family="monospace">Rate Limits</text>
  <rect x="402" y="132" width="90" height="22" rx="11" fill="#fef2f2" stroke="#fca5a5" stroke-width="1"/>
  <text x="447" y="147" font-size="10" font-weight="500" text-anchor="middle" fill="#991b1b" font-family="monospace">No API Key</text>
</svg>