<svg viewBox="0 0 800 200" xmlns="http://www.w3.org/2000/svg" width="800" height="200">
  <defs>
    <linearGradient id="bg" x1="0" y1="0" x2="1" y2="0">
      <stop offset="0%" stop-color="#0c0a09"/>
      <stop offset="100%" stop-color="#1c1917"/>
    </linearGradient>
  </defs>
  <rect width="800" height="200" rx="16" fill="url(#bg)"/>
  <rect x="540" y="24" width="220" height="26" rx="6" fill="#1e293b"/>
  <text x="552" y="41" font-size="12" fill="#94a3b8" font-family="monospace">&#x1F916; S:48%  W:12%</text>
  <circle cx="738" cy="37" r="4" fill="#334155"/>
  <circle cx="726" cy="37" r="4" fill="#334155"/>
  <rect x="540" y="56" width="220" height="120" rx="8" fill="#1e293b" stroke="#334155" stroke-width="1"/>
  <text x="554" y="76" font-size="10" fill="#e2e8f0" font-family="monospace">Session (5hr)</text>
  <rect x="554" y="82" width="90" height="6" rx="3" fill="#3b82f6"/>
  <rect x="646" y="82" width="44" height="6" rx="3" fill="#334155"/>
  <text x="698" y="90" font-size="9" fill="#94a3b8" font-family="monospace">48%</text>
  <text x="554" y="104" font-size="9" fill="#4ade80" font-family="monospace">Resets in 1h 56m</text>
  <line x1="554" y1="112" x2="748" y2="112" stroke="#334155" stroke-width="1"/>
  <text x="554" y="126" font-size="10" fill="#e2e8f0" font-family="monospace">Weekly (all)</text>
  <rect x="554" y="132" width="14" height="6" rx="3" fill="#3b82f6"/>
  <rect x="570" y="132" width="120" height="6" rx="3" fill="#334155"/>
  <text x="698" y="140" font-size="9" fill="#94a3b8" font-family="monospace">12%</text>
  <text x="554" y="154" font-size="9" fill="#4ade80" font-family="monospace">Resets in 6d 21h</text>
  <text x="48" y="86" font-size="38" font-weight="700" fill="#ffffff" font-family="monospace">Claude Monitor</text>
  <text x="48" y="112" font-size="13" fill="#a8a29e" font-family="monospace">Real-time usage stats in your macOS menu bar</text>
  <rect x="48" y="132" width="72" height="22" rx="11" fill="#1a1a1a" stroke="#a78bfa" stroke-width="1"/>
  <text x="84" y="147" font-size="10" font-weight="500" text-anchor="middle" fill="#a78bfa" font-family="monospace">SwiftBar</text>
  <rect x="128" y="132" width="78" height="22" rx="11" fill="#1a1a1a" stroke="#60a5fa" stroke-width="1"/>
  <text x="167" y="147" font-size="10" font-weight="500" text-anchor="middle" fill="#60a5fa" font-family="monospace">Live Usage</text>
  <rect x="214" y="132" width="84" height="22" rx="11" fill="#1a1a1a" stroke="#4ade80" stroke-width="1"/>
  <text x="256" y="147" font-size="10" font-weight="500" text-anchor="middle" fill="#4ade80" font-family="monospace">Auto Refresh</text>
  <rect x="306" y="132" width="88" height="22" rx="11" fill="#1a1a1a" stroke="#fbbf24" stroke-width="1"/>
  <text x="350" y="147" font-size="10" font-weight="500" text-anchor="middle" fill="#fbbf24" font-family="monospace">Rate Limits</text>
  <rect x="402" y="132" width="90" height="22" rx="11" fill="#1a1a1a" stroke="#f87171" stroke-width="1"/>
  <text x="447" y="147" font-size="10" font-weight="500" text-anchor="middle" fill="#f87171" font-family="monospace">No API Key</text>
</svg>